<svg width="21" height="20" viewBox="0 0 21 20" fill="none" xmlns="http://www.w3.org/2000/svg">
<path d="M18.4401 11.0004C18.2201 11.0004 17.9901 10.9304 17.7701 10.8804C17.3246 10.7822 16.8868 10.6518 16.4601 10.4904C15.9962 10.3216 15.4862 10.3304 15.0284 10.515C14.5706 10.6996 14.1972 11.047 13.9801 11.4904L13.7601 11.9404C12.7861 11.3985 11.8911 10.7256 11.1001 9.94036C10.3149 9.14937 9.64192 8.25435 9.1001 7.28036L9.5201 7.00036C9.96347 6.78327 10.3109 6.40989 10.4955 5.95205C10.6801 5.49421 10.6889 4.98427 10.5201 4.52036C10.3613 4.09278 10.231 3.65515 10.1301 3.21036C10.0801 2.99036 10.0401 2.76036 10.0101 2.53036C9.88867 1.82598 9.51973 1.1881 8.96972 0.731596C8.41972 0.275093 7.7248 0.0299652 7.0101 0.0403564H4.0101C3.57913 0.0363098 3.15235 0.12517 2.75881 0.300887C2.36527 0.476604 2.01421 0.735052 1.72953 1.05864C1.44485 1.38222 1.23324 1.76335 1.10909 2.17607C0.984942 2.58879 0.95118 3.02342 1.0101 3.45036C1.54284 7.63974 3.45613 11.5322 6.44775 14.513C9.43938 17.4938 13.3388 19.3929 17.5301 19.9104H17.9101C18.6475 19.9114 19.3595 19.6409 19.9101 19.1504C20.2265 18.8674 20.4792 18.5205 20.6516 18.1327C20.8239 17.7448 20.9121 17.3248 20.9101 16.9004V13.9004C20.8979 13.2057 20.6449 12.5369 20.1944 12.008C19.744 11.4791 19.1239 11.123 18.4401 11.0004ZM18.9401 17.0004C18.9399 17.1423 18.9095 17.2827 18.8509 17.412C18.7923 17.5413 18.7068 17.6566 18.6001 17.7504C18.4884 17.8468 18.3577 17.9189 18.2165 17.962C18.0753 18.005 17.9267 18.0181 17.7801 18.0004C14.035 17.5202 10.5563 15.8068 7.89282 13.1306C5.2293 10.4545 3.53251 6.96769 3.0701 3.22036C3.05419 3.07387 3.06813 2.92569 3.1111 2.78475C3.15407 2.64381 3.22517 2.51304 3.3201 2.40036C3.41381 2.29369 3.52916 2.2082 3.65848 2.14957C3.7878 2.09095 3.92812 2.06054 4.0701 2.06036H7.0701C7.30265 2.05518 7.52972 2.13124 7.71224 2.27543C7.89476 2.41962 8.02131 2.62293 8.0701 2.85036C8.1101 3.12369 8.1601 3.39369 8.2201 3.66036C8.33562 4.1875 8.48936 4.70554 8.6801 5.21036L7.2801 5.86036C7.1604 5.91528 7.05272 5.9933 6.96326 6.08995C6.87379 6.1866 6.8043 6.29997 6.75877 6.42355C6.71324 6.54713 6.69257 6.67849 6.69795 6.81008C6.70332 6.94167 6.73464 7.0709 6.7901 7.19036C8.2293 10.2731 10.7073 12.7512 13.7901 14.1904C14.0336 14.2904 14.3066 14.2904 14.5501 14.1904C14.6748 14.1457 14.7894 14.0768 14.8873 13.9875C14.9851 13.8983 15.0643 13.7905 15.1201 13.6704L15.7401 12.2704C16.2571 12.4552 16.7847 12.6088 17.3201 12.7304C17.5868 12.7904 17.8568 12.8404 18.1301 12.8804C18.3575 12.9291 18.5608 13.0557 18.705 13.2382C18.8492 13.4207 18.9253 13.6478 18.9201 13.8804L18.9401 17.0004Z" fill="#C1C1C1"/>
</svg>
