<svg width="21" height="20" viewBox="0 0 21 20" fill="none" xmlns="http://www.w3.org/2000/svg">
<path d="M18.4401 10.9999C18.2201 10.9999 17.9901 10.9299 17.7701 10.8799C17.3246 10.7817 16.8868 10.6514 16.4601 10.4899C15.9962 10.3211 15.4862 10.3299 15.0284 10.5145C14.5706 10.6991 14.1972 11.0465 13.9801 11.4899L13.7601 11.9399C12.7861 11.398 11.8911 10.7251 11.1001 9.93987C10.3149 9.14888 9.64192 8.25387 9.1001 7.27987L9.5201 6.99987C9.96347 6.78278 10.3109 6.4094 10.4955 5.95156C10.6801 5.49372 10.6889 4.98378 10.5201 4.51987C10.3613 4.09229 10.231 3.65467 10.1301 3.20987C10.0801 2.98987 10.0401 2.75987 10.0101 2.52987C9.88867 1.82549 9.51973 1.18761 8.96972 0.731107C8.41972 0.274605 7.7248 0.0294769 7.0101 0.0398681H4.0101C3.57913 0.0358215 3.15235 0.124682 2.75881 0.300399C2.36527 0.476116 2.01421 0.734564 1.72953 1.05815C1.44485 1.38174 1.23324 1.76286 1.10909 2.17558C0.984942 2.5883 0.95118 3.02293 1.0101 3.44987C1.54284 7.63925 3.45613 11.5317 6.44775 14.5125C9.43938 17.4933 13.3388 19.3924 17.5301 19.9099H17.9101C18.6475 19.9109 19.3595 19.6404 19.9101 19.1499C20.2265 18.8669 20.4792 18.52 20.6516 18.1322C20.8239 17.7443 20.9121 17.3243 20.9101 16.8999V13.8999C20.8979 13.2053 20.6449 12.5364 20.1944 12.0075C19.744 11.4786 19.1239 11.1225 18.4401 10.9999ZM18.9401 16.9999C18.9399 17.1419 18.9095 17.2822 18.8509 17.4115C18.7923 17.5408 18.7068 17.6562 18.6001 17.7499C18.4884 17.8463 18.3577 17.9184 18.2165 17.9615C18.0753 18.0045 17.9267 18.0176 17.7801 17.9999C14.035 17.5197 10.5563 15.8064 7.89282 13.1302C5.2293 10.454 3.53251 6.96721 3.0701 3.21987C3.05419 3.07339 3.06813 2.9252 3.1111 2.78426C3.15407 2.64332 3.22517 2.51256 3.3201 2.39987C3.41381 2.2932 3.52916 2.20771 3.65848 2.14909C3.7878 2.09046 3.92812 2.06005 4.0701 2.05987H7.0701C7.30265 2.05469 7.52972 2.13075 7.71224 2.27494C7.89476 2.41913 8.02131 2.62244 8.0701 2.84987C8.1101 3.1232 8.1601 3.3932 8.2201 3.65987C8.33562 4.18701 8.48936 4.70505 8.6801 5.20987L7.2801 5.85987C7.1604 5.91479 7.05272 5.99281 6.96326 6.08946C6.87379 6.18611 6.8043 6.29948 6.75877 6.42306C6.71324 6.54664 6.69257 6.678 6.69795 6.80959C6.70332 6.94118 6.73464 7.07041 6.7901 7.18987C8.2293 10.2726 10.7073 12.7507 13.7901 14.1899C14.0336 14.2899 14.3066 14.2899 14.5501 14.1899C14.6748 14.1453 14.7894 14.0763 14.8873 13.9871C14.9851 13.8978 15.0643 13.79 15.1201 13.6699L15.7401 12.2699C16.2571 12.4547 16.7847 12.6084 17.3201 12.7299C17.5868 12.7899 17.8568 12.8399 18.1301 12.8799C18.3575 12.9287 18.5608 13.0552 18.705 13.2377C18.8492 13.4202 18.9253 13.6473 18.9201 13.8799L18.9401 16.9999Z" fill="#303030"/>
</svg>
