<svg width="8" height="12" viewBox="0 0 8 12" fill="none" xmlns="http://www.w3.org/2000/svg">
<path d="M4.71 5.99981L1.17 9.53981C0.983744 9.72717 0.879203 9.98062 0.879203 10.2448C0.879203 10.509 0.983744 10.7624 1.17 10.9498C1.26296 11.0435 1.37356 11.1179 1.49542 11.1687C1.61728 11.2195 1.74798 11.2456 1.88 11.2456C2.01201 11.2456 2.14271 11.2195 2.26457 11.1687C2.38643 11.1179 2.49703 11.0435 2.59 10.9498L6.83 6.70981C6.92372 6.61684 6.99812 6.50624 7.04889 6.38438C7.09965 6.26253 7.12579 6.13182 7.12579 5.99981C7.12579 5.8678 7.09965 5.73709 7.04889 5.61523C6.99812 5.49337 6.92372 5.38277 6.83 5.28981L2.59 0.999807C2.49656 0.907126 2.38574 0.833801 2.2639 0.784037C2.14206 0.734272 2.0116 0.709045 1.88 0.709806C1.74839 0.709045 1.61793 0.734272 1.49609 0.784037C1.37425 0.833801 1.26344 0.907126 1.17 0.999807C0.983744 1.18717 0.879203 1.44062 0.879203 1.70481C0.879203 1.96899 0.983744 2.22244 1.17 2.40981L4.71 5.99981Z" fill="#F1F1F1"/>
</svg>
