<svg width="15" height="28" viewBox="0 0 15 28" fill="none" xmlns="http://www.w3.org/2000/svg">
<path d="M13.1052 0.803734L0.295798 13.4764C0.20207 13.5694 0.127676 13.68 0.0769072 13.8018C0.0261385 13.9237 0 14.0544 0 14.1864C0 14.3184 0.0261385 14.4491 0.0769072 14.571C0.127676 14.6928 0.20207 14.8034 0.295798 14.8964L13.1044 27.7042C13.1974 27.7979 13.308 27.8723 13.4298 27.923C13.5517 27.9738 13.6824 28 13.8144 28C13.9464 28 14.0771 27.9738 14.199 27.923C14.3208 27.8723 14.4314 27.7979 14.5244 27.7042C14.7106 27.5168 14.8152 27.2633 14.8152 26.9992C14.8152 26.735 14.7106 26.4815 14.5244 26.2942L2.4158 14.1864L14.5252 2.26373C14.7099 2.07747 14.8141 1.82607 14.8152 1.56373C14.8159 1.43213 14.7907 1.30166 14.7409 1.17982C14.6912 1.05799 14.6178 0.947174 14.5252 0.853733C14.4355 0.756659 14.3276 0.678303 14.2075 0.623196C14.0874 0.568089 13.9576 0.537321 13.8256 0.532673C13.6936 0.528025 13.5619 0.549587 13.4382 0.596111C13.3146 0.642635 13.2014 0.713203 13.1052 0.803734Z" fill="white"/>
</svg>
