<svg width="22" height="19" viewBox="0 0 22 19" fill="none" xmlns="http://www.w3.org/2000/svg">
<path d="M20.103 1.01714C15.6934 1.79531 6.35554 6.20488 1.68656 8.27997C-0.629362 9.5769 3.55414 10.6663 4.7992 10.8738C6.04425 11.0813 6.87429 10.7874 7.13367 10.6144C9.29523 9.14458 13.9296 6.04924 15.1747 5.42671C16.4197 4.80418 16.0393 5.51317 15.6934 5.94548L10.2463 11.3926C9.41628 12.2226 9.72754 12.776 9.98693 12.9489C11.4568 14.0729 14.7078 16.4766 15.9528 17.0991C17.1979 17.7216 18.2873 17.0991 18.8061 15.8022C19.8436 12.4302 20.103 9.83628 20.6218 5.94548C21.0401 2.80773 21.3802 0.791754 20.103 1.01714Z" stroke="white" stroke-width="2"/>
</svg>
